<?xml version="1.0" encoding="UTF-8" standalone="no"?>
<!DOCTYPE svg PUBLIC "-//W3C//DTD SVG 1.1//EN" "http://www.w3.org/Graphics/SVG/1.1/DTD/svg11.dtd">
<svg xmlns="http://www.w3.org/2000/svg" version="1.1" viewBox="0.00 0.00 1931.00 1086.00">
<g stroke-width="2.00" fill="none" stroke-linecap="butt">
<path stroke="#f3f3f3" vector-effect="non-scaling-stroke" d="
  M 945.5383 1062.3969
  A 519.74 519.81 92.2 0 0 1484.9169 562.9944
  A 519.74 519.81 92.2 0 0 985.4417 23.6831
  A 519.74 519.81 92.2 0 0 446.0631 523.0856
  A 519.74 519.81 92.2 0 0 945.5383 1062.3969"
/>
<path stroke="#80c6ff" vector-effect="non-scaling-stroke" d="
  M 1443.57 543.00
  A 478.07 478.07 0.0 0 0 965.50 64.93
  A 478.07 478.07 0.0 0 0 487.43 543.00
  A 478.07 478.07 0.0 0 0 965.50 1021.07
  A 478.07 478.07 0.0 0 0 1443.57 543.00"
/>
<path stroke="#80c6ff" vector-effect="non-scaling-stroke" d="
  M 654.63 631.37
  C 662.09 678.49 701.34 709.46 748.75 709.48
  Q 907.19 709.53 1065.61 709.49
  C 1076.22 709.48 1084.85 709.05 1088.83 698.92
  Q 1090.26 695.28 1090.26 687.39
  Q 1090.26 580.98 1090.23 474.57
  Q 1090.23 461.43 1089.19 454.62
  C 1082.01 407.64 1041.96 376.37 994.75 376.40
  Q 835.97 376.49 677.18 376.51
  Q 667.99 376.51 664.58 377.68
  C 655.87 380.68 653.51 387.88 653.51 396.81
  Q 653.47 504.13 653.53 611.43
  Q 653.53 624.46 654.63 631.37"
/>
<path stroke="#80c6ff" vector-effect="non-scaling-stroke" d="
  M 1111.90 605.98
  Q 1178.20 654.34 1244.43 702.86
  Q 1249.22 706.37 1254.73 708.52
  C 1269.17 714.14 1267.24 689.86 1267.24 683.08
  Q 1267.27 538.82 1267.25 394.56
  C 1267.25 387.50 1266.19 373.24 1254.73 377.08
  Q 1251.64 378.12 1250.77 378.76
  Q 1181.11 429.66 1111.38 480.53
  Q 1111.00 480.81 1111.00 481.27
  L 1111.00 604.20
  Q 1111.00 605.32 1111.90 605.98"
/>
</g>
<path fill="#e6e7e6" d="
  M 1495.58 543.00
  A 530.08 530.08 0.0 0 1 965.50 1073.08
  A 530.08 530.08 0.0 0 1 435.42 543.00
  A 530.08 530.08 0.0 0 1 965.50 12.92
  A 530.08 530.08 0.0 0 1 1495.58 543.00
  Z
  M 945.5383 1062.3969
  A 519.74 519.81 92.2 0 0 1484.9169 562.9944
  A 519.74 519.81 92.2 0 0 985.4417 23.6831
  A 519.74 519.81 92.2 0 0 446.0631 523.0856
  A 519.74 519.81 92.2 0 0 945.5383 1062.3969
  Z"
/>
<path fill="#ffffff" d="
  M 945.5383 1062.3969
  A 519.74 519.81 92.2 0 1 446.0631 523.0856
  A 519.74 519.81 92.2 0 1 985.4417 23.6831
  A 519.74 519.81 92.2 0 1 1484.9169 562.9944
  A 519.74 519.81 92.2 0 1 945.5383 1062.3969
  Z
  M 1443.57 543.00
  A 478.07 478.07 0.0 0 0 965.50 64.93
  A 478.07 478.07 0.0 0 0 487.43 543.00
  A 478.07 478.07 0.0 0 0 965.50 1021.07
  A 478.07 478.07 0.0 0 0 1443.57 543.00
  Z"
/>
<path fill="#008dff" d="
  M 1443.57 543.00
  A 478.07 478.07 0.0 0 1 965.50 1021.07
  A 478.07 478.07 0.0 0 1 487.43 543.00
  A 478.07 478.07 0.0 0 1 965.50 64.93
  A 478.07 478.07 0.0 0 1 1443.57 543.00
  Z
  M 654.63 631.37
  C 662.09 678.49 701.34 709.46 748.75 709.48
  Q 907.19 709.53 1065.61 709.49
  C 1076.22 709.48 1084.85 709.05 1088.83 698.92
  Q 1090.26 695.28 1090.26 687.39
  Q 1090.26 580.98 1090.23 474.57
  Q 1090.23 461.43 1089.19 454.62
  C 1082.01 407.64 1041.96 376.37 994.75 376.40
  Q 835.97 376.49 677.18 376.51
  Q 667.99 376.51 664.58 377.68
  C 655.87 380.68 653.51 387.88 653.51 396.81
  Q 653.47 504.13 653.53 611.43
  Q 653.53 624.46 654.63 631.37
  Z
  M 1111.90 605.98
  Q 1178.20 654.34 1244.43 702.86
  Q 1249.22 706.37 1254.73 708.52
  C 1269.17 714.14 1267.24 689.86 1267.24 683.08
  Q 1267.27 538.82 1267.25 394.56
  C 1267.25 387.50 1266.19 373.24 1254.73 377.08
  Q 1251.64 378.12 1250.77 378.76
  Q 1181.11 429.66 1111.38 480.53
  Q 1111.00 480.81 1111.00 481.27
  L 1111.00 604.20
  Q 1111.00 605.32 1111.90 605.98
  Z"
/>
<path fill="#ffffff" d="
  M 748.75 709.48
  C 701.34 709.46 662.09 678.49 654.63 631.37
  Q 653.53 624.46 653.53 611.43
  Q 653.47 504.13 653.51 396.81
  C 653.51 387.88 655.87 380.68 664.58 377.68
  Q 667.99 376.51 677.18 376.51
  Q 835.97 376.49 994.75 376.40
  C 1041.96 376.37 1082.01 407.64 1089.19 454.62
  Q 1090.23 461.43 1090.23 474.57
  Q 1090.26 580.98 1090.26 687.39
  Q 1090.26 695.28 1088.83 698.92
  C 1084.85 709.05 1076.22 709.48 1065.61 709.49
  Q 907.19 709.53 748.75 709.48
  Z"
/>
<path fill="#ffffff" d="
  M 1111.90 605.98
  Q 1111.00 605.32 1111.00 604.20
  L 1111.00 481.27
  Q 1111.00 480.81 1111.38 480.53
  Q 1181.11 429.66 1250.77 378.76
  Q 1251.64 378.12 1254.73 377.08
  C 1266.19 373.24 1267.25 387.50 1267.25 394.56
  Q 1267.27 538.82 1267.24 683.08
  C 1267.24 689.86 1269.17 714.14 1254.73 708.52
  Q 1249.22 706.37 1244.43 702.86
  Q 1178.20 654.34 1111.90 605.98
  Z"
/>
</svg>
